<?xml version="1.0" standalone="no"?>
<!DOCTYPE svg PUBLIC "-//W3C//DTD SVG 20010904//EN"
 "http://www.w3.org/TR/2001/REC-SVG-20010904/DTD/svg10.dtd">
<svg version="1.0" xmlns="http://www.w3.org/2000/svg"
 width="900.000000pt" height="900.000000pt" viewBox="0 0 900.000000 900.000000"
 preserveAspectRatio="xMidYMid meet">
<metadata>
Created by potrace 1.11, written by Peter Selinger 2001-2013
</metadata>
<g transform="translate(0.000000,900.000000) scale(0.100000,-0.100000)"
fill="#000000" stroke="none">
<path d="M450 7920 c0 -692 -2 -673 60 -705 60 -31 126 -10 154 49 15 31 16
91 16 546 l-1 511 511 -1 c455 0 515 1 546 16 59 28 80 94 49 154 -32 62 -13
60 -705 60 l-630 0 0 -630z"/>
<path d="M7234 8516 c-42 -42 -47 -97 -12 -141 43 -55 44 -55 593 -55 l505 0
0 -505 c0 -549 0 -550 55 -593 44 -35 99 -30 141 12 l34 34 0 641 0 641 -641
0 -641 0 -34 -34z"/>
<path d="M4185 8323 c-573 -22 -1078 -202 -1486 -531 -88 -71 -268 -252 -338
-340 -272 -340 -445 -731 -528 -1190 -25 -136 -27 -167 -27 -427 0 -351 28
-608 110 -1019 14 -70 22 -132 17 -136 -4 -4 -26 -13 -48 -20 -138 -43 -248
-156 -291 -301 -31 -104 -23 -278 21 -432 14 -48 25 -90 25 -92 0 -2 -228 -5
-507 -7 -464 -3 -511 -5 -548 -21 -55 -25 -84 -54 -111 -112 -52 -111 -14
-229 94 -292 l47 -28 648 -3 649 -3 71 -60 c66 -55 190 -127 245 -141 21 -6
22 -12 22 -90 1 -159 39 -389 96 -573 118 -379 317 -700 611 -986 208 -203
407 -336 685 -461 94 -42 125 -62 189 -122 145 -135 349 -231 539 -253 314
-37 603 61 830 280 36 36 75 61 115 77 96 37 251 117 355 182 280 177 563 461
734 738 211 341 319 684 344 1094 l7 109 51 18 c63 21 150 75 225 140 l57 48
643 3 c595 3 647 4 684 21 55 25 84 54 111 112 52 111 14 229 -94 292 l-47 28
-513 3 c-480 3 -513 4 -507 20 14 37 46 184 55 257 12 93 -1 232 -29 304 -23
60 -76 132 -133 177 -43 34 -172 94 -202 94 -21 0 -21 3 13 160 36 168 85 453
108 630 22 166 24 587 5 725 -62 431 -196 750 -426 1008 -217 244 -540 416
-834 443 l-70 7 -67 74 c-366 404 -947 620 -1600 596z m429 -248 c216 -33 368
-80 551 -170 214 -105 392 -245 510 -402 l60 -80 125 -5 c105 -4 139 -10 217
-36 176 -60 310 -140 441 -266 255 -245 398 -572 443 -1015 17 -170 6 -476
-25 -704 -27 -193 -103 -587 -155 -802 l-29 -120 -4 360 c-5 340 -7 367 -31
481 -64 296 -182 537 -369 753 -128 148 -310 291 -483 378 -66 34 -292 113
-318 113 -7 -1 -32 -29 -57 -62 -162 -222 -456 -456 -765 -608 -175 -87 -294
-132 -460 -175 -249 -66 -366 -79 -819 -90 -114 -3 -258 -12 -320 -21 -378
-52 -616 -204 -752 -478 -86 -174 -123 -354 -125 -606 l-1 -125 -29 115 c-70
283 -131 610 -165 890 -13 106 -18 221 -18 425 -1 250 2 294 22 408 47 260
108 451 212 662 344 699 997 1131 1806 1194 148 12 417 5 538 -14z m1122
-1824 c358 -172 625 -484 724 -845 56 -201 53 -164 59 -893 l6 -683 -363 -2
c-199 -2 -362 -2 -362 0 0 1 9 21 21 44 26 51 35 139 20 194 -46 169 -244 257
-400 177 -64 -33 -123 -103 -141 -169 -20 -71 -4 -176 37 -244 2 -3 -375 -5
-837 -5 -462 0 -839 2 -837 5 41 68 57 173 37 244 -6 24 -28 65 -49 92 -113
149 -347 140 -453 -18 -54 -80 -62 -192 -19 -276 12 -23 21 -43 21 -44 0 -2
-162 -2 -360 -1 l-361 2 1 414 c0 439 8 538 50 667 77 231 213 361 450 431
122 36 250 49 575 59 230 7 358 15 455 29 406 62 774 203 1110 426 152 101
246 179 380 315 69 70 127 128 130 129 3 0 51 -21 106 -48z m-3707 -1924 c18
-72 58 -214 87 -313 30 -100 54 -183 54 -185 0 -2 -63 -3 -141 -1 l-140 3 -15
34 c-56 136 -88 347 -65 433 16 56 64 110 126 138 27 13 52 24 55 24 3 0 20
-60 39 -133z m5036 109 c62 -28 110 -82 126 -138 23 -86 -9 -297 -66 -434
l-14 -34 -146 0 c-135 0 -146 1 -141 18 13 40 135 502 146 555 15 66 21 68 95
33z m-495 -1080 l-45 -12 -6 -209 c-6 -211 -20 -318 -60 -470 -86 -333 -255
-640 -498 -905 -199 -217 -483 -411 -760 -520 -66 -27 -93 -44 -130 -83 -254
-273 -645 -331 -963 -145 -40 24 -108 78 -152 121 -73 71 -89 81 -184 119
-544 217 -997 702 -1188 1273 -72 215 -95 352 -103 605 l-6 214 -45 12 c-35 9
409 12 2070 12 1661 0 2105 -3 2070 -12z"/>
<path d="M484 1766 l-34 -34 0 -641 0 -641 641 0 641 0 34 34 c27 27 34 42 34
74 0 51 -37 97 -88 112 -23 6 -226 10 -534 10 l-498 0 0 505 c0 549 0 550 -55
593 -44 35 -99 30 -141 -12z"/>
<path d="M8379 1785 c-59 -32 -59 -35 -59 -595 l1 -511 -511 1 c-455 0 -515
-1 -546 -16 -59 -28 -80 -94 -49 -154 32 -62 13 -60 705 -60 l630 0 0 630 c0
692 2 673 -60 705 -36 19 -77 19 -111 0z"/>
</g>
</svg>
